REM DIRINDEX 1\2,1\3,1\4,1\5
REM DIRNAME cjc087,folder01,folder02,folder03,folder04
TITLE ""
FILE "Chapter_17.mp3" MP3
  TRACK 01 AUDIO
    TITLE "0:"
    INDEX 01 00:00:00
  TRACK 02 AUDIO
    TITLE "5:cjc087_5227"
    INDEX 01 00:00:07
  TRACK 03 AUDIO
    TITLE "0:"
    INDEX 01 00:02:06
  TRACK 04 AUDIO
    TITLE "5:cjc087_5228"
    INDEX 01 00:03:45
  TRACK 05 AUDIO
    TITLE "0:"
    INDEX 01 00:05:63
  TRACK 06 AUDIO
    TITLE "4:cjc087_5229"
    INDEX 01 00:06:63
  TRACK 07 AUDIO
    TITLE "3:cjc087_5230"
    INDEX 01 00:09:22
  TRACK 08 AUDIO
    TITLE "0:"
    INDEX 01 00:11:52
  TRACK 09 AUDIO
    TITLE "4:cjc087_5231"
    INDEX 01 00:12:50
  TRACK 10 AUDIO
    TITLE "3:cjc087_5232"
    INDEX 01 00:15:60
  TRACK 11 AUDIO
    TITLE "0:"
    INDEX 01 00:18:50
  TRACK 12 AUDIO
    TITLE "4:cjc087_5233"
    INDEX 01 00:19:54
  TRACK 13 AUDIO
    TITLE "3:cjc087_5234"
    INDEX 01 00:21:23
  TRACK 14 AUDIO
    TITLE "0:"
    INDEX 01 00:23:24
  TRACK 15 AUDIO
    TITLE "4:cjc087_5235"
    INDEX 01 00:24:22
  TRACK 16 AUDIO
    TITLE "3:cjc087_5236"
    INDEX 01 00:26:20
  TRACK 17 AUDIO
    TITLE "0:"
    INDEX 01 00:28:15
  TRACK 18 AUDIO
    TITLE "4:cjc087_5237"
    INDEX 01 00:29:13
  TRACK 19 AUDIO
    TITLE "3:cjc087_5238"
    INDEX 01 00:31:08
  TRACK 20 AUDIO
    TITLE "0:"
    INDEX 01 00:33:34
  TRACK 21 AUDIO
    TITLE "4:cjc087_5239"
    INDEX 01 00:34:32
  TRACK 22 AUDIO
    TITLE "3:cjc087_5240"
    INDEX 01 00:36:36
  TRACK 23 AUDIO
    TITLE "0:"
    INDEX 01 00:38:30
  TRACK 24 AUDIO
    TITLE "4:cjc087_5241"
    INDEX 01 00:39:27
  TRACK 25 AUDIO
    TITLE "3:cjc087_5242"
    INDEX 01 00:41:12
  TRACK 26 AUDIO
    TITLE "0:"
    INDEX 01 00:43:13
  TRACK 27 AUDIO
    TITLE "5:cjc087_5243"
    INDEX 01 00:44:48
  TRACK 28 AUDIO
    TITLE "0:"
    INDEX 01 00:46:66
  TRACK 29 AUDIO
    TITLE "4:cjc087_5244"
    INDEX 01 00:47:64
  TRACK 30 AUDIO
    TITLE "3:cjc087_5245"
    INDEX 01 00:49:31
  TRACK 31 AUDIO
    TITLE "0:"
    INDEX 01 00:51:42
  TRACK 32 AUDIO
    TITLE "4:cjc087_5246"
    INDEX 01 00:52:41
  TRACK 33 AUDIO
    TITLE "3:cjc087_5247"
    INDEX 01 00:54:46
  TRACK 34 AUDIO
    TITLE "0:"
    INDEX 01 00:57:07
  TRACK 35 AUDIO
    TITLE "4:cjc087_5248"
    INDEX 01 00:58:05
  TRACK 36 AUDIO
    TITLE "3:cjc087_5249"
    INDEX 01 01:00:35
  TRACK 37 AUDIO
    TITLE "0:"
    INDEX 01 01:03:27
  TRACK 38 AUDIO
    TITLE "4:cjc087_5250"
    INDEX 01 01:04:25
  TRACK 39 AUDIO
    TITLE "3:cjc087_5251"
    INDEX 01 01:05:71
  TRACK 40 AUDIO
    TITLE "0:"
    INDEX 01 01:08:13
  TRACK 41 AUDIO
    TITLE "4:cjc087_5252"
    INDEX 01 01:09:07
  TRACK 42 AUDIO
    TITLE "3:cjc087_5253"
    INDEX 01 01:11:52
  TRACK 43 AUDIO
    TITLE "0:"
    INDEX 01 01:14:02
  TRACK 44 AUDIO
    TITLE "4:cjc087_5254"
    INDEX 01 01:15:01
  TRACK 45 AUDIO
    TITLE "3:cjc087_5255"
    INDEX 01 01:16:46
  TRACK 46 AUDIO
    TITLE "0:"
    INDEX 01 01:18:64
  TRACK 47 AUDIO
    TITLE "4:cjc087_5256"
    INDEX 01 01:19:62
  TRACK 48 AUDIO
    TITLE "3:cjc087_5257"
    INDEX 01 01:21:69
  TRACK 49 AUDIO
    TITLE "0:"
    INDEX 01 01:23:63
  TRACK 50 AUDIO
    TITLE "4:cjc087_5258"
    INDEX 01 01:24:65
  TRACK 51 AUDIO
    TITLE "3:cjc087_5259"
    INDEX 01 01:26:38
  TRACK 52 AUDIO
    TITLE "0:"
    INDEX 01 01:28:45
  TRACK 53 AUDIO
    TITLE "5:cjc087_5260"
    INDEX 01 01:30:05
  TRACK 54 AUDIO
    TITLE "0:"
    INDEX 01 01:32:21
  TRACK 55 AUDIO
    TITLE "4:cjc087_5261"
    INDEX 01 01:33:19
  TRACK 56 AUDIO
    TITLE "3:cjc087_5262"
    INDEX 01 01:35:24
  TRACK 57 AUDIO
    TITLE "0:"
    INDEX 01 01:37:36
  TRACK 58 AUDIO
    TITLE "4:cjc087_5263"
    INDEX 01 01:38:36
  TRACK 59 AUDIO
    TITLE "3:cjc087_5264"
    INDEX 01 01:40:11
  TRACK 60 AUDIO
    TITLE "0:"
    INDEX 01 01:42:37
  TRACK 61 AUDIO
    TITLE "4:cjc087_5265"
    INDEX 01 01:43:37
  TRACK 62 AUDIO
    TITLE "3:cjc087_5266"
    INDEX 01 01:45:59
  TRACK 63 AUDIO
    TITLE "0:"
    INDEX 01 01:48:24
  TRACK 64 AUDIO
    TITLE "4:cjc087_5267"
    INDEX 01 01:49:16
  TRACK 65 AUDIO
    TITLE "3:cjc087_5268"
    INDEX 01 01:51:28
  TRACK 66 AUDIO
    TITLE "0:"
    INDEX 01 01:53:25
  TRACK 67 AUDIO
    TITLE "4:cjc087_5269"
    INDEX 01 01:54:23
  TRACK 68 AUDIO
    TITLE "3:cjc087_5270"
    INDEX 01 01:56:18
  TRACK 69 AUDIO
    TITLE "0:"
    INDEX 01 02:00:51
  TRACK 70 AUDIO
    TITLE "4:cjc087_5271"
    INDEX 01 02:01:50
  TRACK 71 AUDIO
    TITLE "3:cjc087_5272"
    INDEX 01 02:03:67
  TRACK 72 AUDIO
    TITLE "0:"
    INDEX 01 02:06:73
  TRACK 73 AUDIO
    TITLE "2:cjc087_5273"
    INDEX 01 02:08:35
  TRACK 74 AUDIO
    TITLE "0:"
    INDEX 01 02:25:18
  TRACK 75 AUDIO
    TITLE "5:cjc087_5274"
    INDEX 01 02:26:58
  TRACK 76 AUDIO
    TITLE "0:"
    INDEX 01 02:29:06
  TRACK 77 AUDIO
    TITLE "3:cjc087_5275"
    INDEX 01 02:29:74
  TRACK 78 AUDIO
    TITLE "4:cjc087_5276"
    INDEX 01 02:33:11
  TRACK 79 AUDIO
    TITLE "0:"
    INDEX 01 02:35:53
  TRACK 80 AUDIO
    TITLE "3:cjc087_5277"
    INDEX 01 02:36:53
  TRACK 81 AUDIO
    TITLE "4:cjc087_5278"
    INDEX 01 02:38:46
  TRACK 82 AUDIO
    TITLE "0:"
    INDEX 01 02:40:72
  TRACK 83 AUDIO
    TITLE "3:cjc087_5279"
    INDEX 01 02:41:69
  TRACK 84 AUDIO
    TITLE "4:cjc087_5280"
    INDEX 01 02:45:40
  TRACK 85 AUDIO
    TITLE "0:"
    INDEX 01 02:48:28
  TRACK 86 AUDIO
    TITLE "3:cjc087_5281"
    INDEX 01 02:49:24
  TRACK 87 AUDIO
    TITLE "4:cjc087_5282"
    INDEX 01 02:51:37
  TRACK 88 AUDIO
    TITLE "0:"
    INDEX 01 02:53:43
  TRACK 89 AUDIO
    TITLE "3:cjc087_5283"
    INDEX 01 02:54:39
  TRACK 90 AUDIO
    TITLE "4:cjc087_5284"
    INDEX 01 02:56:48
  TRACK 91 AUDIO
    TITLE "0:"
    INDEX 01 02:58:33
  TRACK 92 AUDIO
    TITLE "3:cjc087_5285"
    INDEX 01 02:59:30
  TRACK 93 AUDIO
    TITLE "4:cjc087_5286"
    INDEX 01 03:01:19
  TRACK 94 AUDIO
    TITLE "0:"
    INDEX 01 03:03:26
  TRACK 95 AUDIO
    TITLE "3:cjc087_5287"
    INDEX 01 03:04:22
  TRACK 96 AUDIO
    TITLE "4:cjc087_5288"
    INDEX 01 03:07:22
  TRACK 97 AUDIO
    TITLE "0:"
    INDEX 01 03:09:15
  TRACK 98 AUDIO
    TITLE "5:cjc087_5289"
    INDEX 01 03:10:52
  TRACK 99 AUDIO
    TITLE "0:"
    INDEX 01 03:12:68
  TRACK 100 AUDIO
    TITLE "4:cjc087_5290"
    INDEX 01 03:13:64
  TRACK 101 AUDIO
    TITLE "3:cjc087_5291"
    INDEX 01 03:15:55
  TRACK 102 AUDIO
    TITLE "0:"
    INDEX 01 03:18:14
  TRACK 103 AUDIO
    TITLE "4:cjc087_5292"
    INDEX 01 03:19:11
  TRACK 104 AUDIO
    TITLE "3:cjc087_5293"
    INDEX 01 03:21:26
  TRACK 105 AUDIO
    TITLE "0:"
    INDEX 01 03:24:36
  TRACK 106 AUDIO
    TITLE "4:cjc087_5294"
    INDEX 01 03:25:33
  TRACK 107 AUDIO
    TITLE "3:cjc087_5295"
    INDEX 01 03:27:68
  TRACK 108 AUDIO
    TITLE "0:"
    INDEX 01 03:31:09
  TRACK 109 AUDIO
    TITLE "4:cjc087_5296"
    INDEX 01 03:32:04
  TRACK 110 AUDIO
    TITLE "3:cjc087_5297"
    INDEX 01 03:34:32
  TRACK 111 AUDIO
    TITLE "0:"
    INDEX 01 03:36:74
  TRACK 112 AUDIO
    TITLE "4:cjc087_5298"
    INDEX 01 03:37:74
  TRACK 113 AUDIO
    TITLE "3:cjc087_5299"
    INDEX 01 03:40:29
  TRACK 114 AUDIO
    TITLE "0:"
    INDEX 01 03:43:26
  TRACK 115 AUDIO
    TITLE "4:cjc087_5300"
    INDEX 01 03:44:25
  TRACK 116 AUDIO
    TITLE "3:cjc087_5301"
    INDEX 01 03:46:57
  TRACK 117 AUDIO
    TITLE "0:"
    INDEX 01 03:49:12
  TRACK 118 AUDIO
    TITLE "4:cjc087_5302"
    INDEX 01 03:50:12
  TRACK 119 AUDIO
    TITLE "3:cjc087_5303"
    INDEX 01 03:51:74
  TRACK 120 AUDIO
    TITLE "0:"
    INDEX 01 03:53:69
  TRACK 121 AUDIO
    TITLE "5:cjc087_5304"
    INDEX 01 03:55:31
  TRACK 122 AUDIO
    TITLE "0:"
    INDEX 01 03:57:51
  TRACK 123 AUDIO
    TITLE "4:cjc087_5305"
    INDEX 01 03:58:47
  TRACK 124 AUDIO
    TITLE "3:cjc087_5306"
    INDEX 01 04:00:20
  TRACK 125 AUDIO
    TITLE "0:"
    INDEX 01 04:02:03
  TRACK 126 AUDIO
    TITLE "4:cjc087_5307"
    INDEX 01 04:03:03
  TRACK 127 AUDIO
    TITLE "3:cjc087_5308"
    INDEX 01 04:05:35
  TRACK 128 AUDIO
    TITLE "0:"
    INDEX 01 04:08:06
  TRACK 129 AUDIO
    TITLE "4:cjc087_5309"
    INDEX 01 04:09:05
  TRACK 130 AUDIO
    TITLE "3:cjc087_5310"
    INDEX 01 04:10:30
  TRACK 131 AUDIO
    TITLE "0:"
    INDEX 01 04:12:15
  TRACK 132 AUDIO
    TITLE "4:cjc087_5311"
    INDEX 01 04:13:34
  TRACK 133 AUDIO
    TITLE "3:cjc087_5312"
    INDEX 01 04:16:41
  TRACK 134 AUDIO
    TITLE "0:"
    INDEX 01 04:20:15
  TRACK 135 AUDIO
    TITLE "4:cjc087_5313"
    INDEX 01 04:21:12
  TRACK 136 AUDIO
    TITLE "3:cjc087_5314"
    INDEX 01 04:23:64
  TRACK 137 AUDIO
    TITLE "0:"
    INDEX 01 04:26:29
  TRACK 138 AUDIO
    TITLE "4:cjc087_5315"
    INDEX 01 04:27:29
  TRACK 139 AUDIO
    TITLE "3:cjc087_5316"
    INDEX 01 04:29:22
  TRACK 140 AUDIO
    TITLE "0:"
    INDEX 01 04:31:07
  TRACK 141 AUDIO
    TITLE "4:cjc087_5317"
    INDEX 01 04:32:06
  TRACK 142 AUDIO
    TITLE "3:cjc087_5318"
    INDEX 01 04:33:53
  TRACK 143 AUDIO
    TITLE "0:"
    INDEX 01 04:35:54
  TRACK 144 AUDIO
    TITLE "4:cjc087_5319"
    INDEX 01 04:36:51
  TRACK 145 AUDIO
    TITLE "3:cjc087_5320"
    INDEX 01 04:38:34
  TRACK 146 AUDIO
    TITLE "0:"
    INDEX 01 04:40:33
  TRACK 147 AUDIO
    TITLE "5:cjc087_5321"
    INDEX 01 04:41:68
  TRACK 148 AUDIO
    TITLE "0:"
    INDEX 01 04:44:17
  TRACK 149 AUDIO
    TITLE "4:cjc087_5322"
    INDEX 01 04:45:11
  TRACK 150 AUDIO
    TITLE "3:cjc087_5323"
    INDEX 01 04:47:67
  TRACK 151 AUDIO
    TITLE "0:"
    INDEX 01 04:51:08
  TRACK 152 AUDIO
    TITLE "4:cjc087_5324"
    INDEX 01 04:52:05
  TRACK 153 AUDIO
    TITLE "3:cjc087_5325"
    INDEX 01 04:55:23
  TRACK 154 AUDIO
    TITLE "0:"
    INDEX 01 04:58:23
  TRACK 155 AUDIO
    TITLE "4:cjc087_5326"
    INDEX 01 04:59:25
  TRACK 156 AUDIO
    TITLE "3:cjc087_5327"
    INDEX 01 05:01:59
  TRACK 157 AUDIO
    TITLE "0:"
    INDEX 01 05:04:59
  TRACK 158 AUDIO
    TITLE "4:cjc087_5328"
    INDEX 01 05:05:59
  TRACK 159 AUDIO
    TITLE "3:cjc087_5329"
    INDEX 01 05:07:40
  TRACK 160 AUDIO
    TITLE "0:"
    INDEX 01 05:09:64
  TRACK 161 AUDIO
    TITLE "4:cjc087_5330"
    INDEX 01 05:10:64
  TRACK 162 AUDIO
    TITLE "3:cjc087_5331"
    INDEX 01 05:12:67
  TRACK 163 AUDIO
    TITLE "0:"
    INDEX 01 05:15:04
  TRACK 164 AUDIO
    TITLE "4:cjc087_5332"
    INDEX 01 05:16:04
  TRACK 165 AUDIO
    TITLE "3:cjc087_5333"
    INDEX 01 05:17:70
  TRACK 166 AUDIO
    TITLE "0:"
    INDEX 01 05:20:13
  TRACK 167 AUDIO
    TITLE "4:cjc087_5334"
    INDEX 01 05:21:09
  TRACK 168 AUDIO
    TITLE "3:cjc087_5335"
    INDEX 01 05:23:21
  TRACK 169 AUDIO
    TITLE "0:"
    INDEX 01 05:25:52
  TRACK 170 AUDIO
    TITLE "5:cjc087_5336"
    INDEX 01 05:27:13
  TRACK 171 AUDIO
    TITLE "0:"
    INDEX 01 05:29:18
  TRACK 172 AUDIO
    TITLE "4:cjc087_5337"
    INDEX 01 05:30:16
  TRACK 173 AUDIO
    TITLE "3:cjc087_5338"
    INDEX 01 05:33:04
  TRACK 174 AUDIO
    TITLE "0:"
    INDEX 01 05:35:48
  TRACK 175 AUDIO
    TITLE "4:cjc087_5339"
    INDEX 01 05:36:46
  TRACK 176 AUDIO
    TITLE "3:cjc087_5340"
    INDEX 01 05:38:21
  TRACK 177 AUDIO
    TITLE "0:"
    INDEX 01 05:40:34
  TRACK 178 AUDIO
    TITLE "4:cjc087_5341"
    INDEX 01 05:41:31
  TRACK 179 AUDIO
    TITLE "3:cjc087_5342"
    INDEX 01 05:43:44
  TRACK 180 AUDIO
    TITLE "0:"
    INDEX 01 05:45:45
  TRACK 181 AUDIO
    TITLE "4:cjc087_5343"
    INDEX 01 05:46:40
  TRACK 182 AUDIO
    TITLE "3:cjc087_5344"
    INDEX 01 05:47:63
  TRACK 183 AUDIO
    TITLE "0:"
    INDEX 01 05:50:30
  TRACK 184 AUDIO
    TITLE "4:cjc087_5345"
    INDEX 01 05:51:27
  TRACK 185 AUDIO
    TITLE "3:cjc087_5346"
    INDEX 01 05:53:38
  TRACK 186 AUDIO
    TITLE "0:"
    INDEX 01 05:56:01
  TRACK 187 AUDIO
    TITLE "4:cjc087_5347"
    INDEX 01 05:56:72
  TRACK 188 AUDIO
    TITLE "3:cjc087_5348"
    INDEX 01 05:59:17
  TRACK 189 AUDIO
    TITLE "0:"
    INDEX 01 06:01:61
  TRACK 190 AUDIO
    TITLE "4:cjc087_5349"
    INDEX 01 06:02:59
  TRACK 191 AUDIO
    TITLE "3:cjc087_5350"
    INDEX 01 06:04:61
  TRACK 192 AUDIO
    TITLE "0:"
    INDEX 01 06:07:13
  TRACK 193 AUDIO
    TITLE "4:cjc087_5351"
    INDEX 01 06:08:10
  TRACK 194 AUDIO
    TITLE "3:cjc087_5352"
    INDEX 01 06:09:61
  TRACK 195 AUDIO
    TITLE "0:"
    INDEX 01 06:11:52
  TRACK 196 AUDIO
    TITLE "2:cjc087_5353"
    INDEX 01 06:13:09
  TRACK 197 AUDIO
    TITLE "0:"
    INDEX 01 06:21:68
  TRACK 198 AUDIO
    TITLE "5:cjc087_5354"
    INDEX 01 06:23:43
  TRACK 199 AUDIO
    TITLE "0:"
    INDEX 01 06:25:64
  TRACK 200 AUDIO
    TITLE "4:cjc087_5355"
    INDEX 01 06:26:61
  TRACK 201 AUDIO
    TITLE "3:cjc087_5356"
    INDEX 01 06:29:24
  TRACK 202 AUDIO
    TITLE "0:"
    INDEX 01 06:32:03
  TRACK 203 AUDIO
    TITLE "4:cjc087_5357"
    INDEX 01 06:32:73
  TRACK 204 AUDIO
    TITLE "3:cjc087_5358"
    INDEX 01 06:35:11
  TRACK 205 AUDIO
    TITLE "0:"
    INDEX 01 06:37:43
  TRACK 206 AUDIO
    TITLE "4:cjc087_5359"
    INDEX 01 06:38:43
  TRACK 207 AUDIO
    TITLE "3:cjc087_5360"
    INDEX 01 06:40:51
  TRACK 208 AUDIO
    TITLE "0:"
    INDEX 01 06:42:54
  TRACK 209 AUDIO
    TITLE "4:cjc087_5361"
    INDEX 01 06:43:54
  TRACK 210 AUDIO
    TITLE "3:cjc087_5362"
    INDEX 01 06:45:37
  TRACK 211 AUDIO
    TITLE "0:"
    INDEX 01 06:47:67
  TRACK 212 AUDIO
    TITLE "4:cjc087_5363"
    INDEX 01 06:48:65
  TRACK 213 AUDIO
    TITLE "3:cjc087_5364"
    INDEX 01 06:51:12
  TRACK 214 AUDIO
    TITLE "0:"
    INDEX 01 06:53:23
  TRACK 215 AUDIO
    TITLE "4:cjc087_5365"
    INDEX 01 06:54:16
  TRACK 216 AUDIO
    TITLE "3:cjc087_5366"
    INDEX 01 06:56:33
  TRACK 217 AUDIO
    TITLE "0:"
    INDEX 01 06:58:45
  TRACK 218 AUDIO
    TITLE "4:cjc087_5367"
    INDEX 01 06:59:45
  TRACK 219 AUDIO
    TITLE "3:cjc087_5368"
    INDEX 01 07:02:12
  TRACK 220 AUDIO
    TITLE "0:"
    INDEX 01 07:04:56
  TRACK 221 AUDIO
    TITLE "5:cjc087_5369"
    INDEX 01 07:06:16
  TRACK 222 AUDIO
    TITLE "0:"
    INDEX 01 07:08:36
  TRACK 223 AUDIO
    TITLE "4:cjc087_5370"
    INDEX 01 07:09:28
  TRACK 224 AUDIO
    TITLE "3:cjc087_5371"
    INDEX 01 07:12:46
  TRACK 225 AUDIO
    TITLE "0:"
    INDEX 01 07:15:07
  TRACK 226 AUDIO
    TITLE "4:cjc087_5372"
    INDEX 01 07:16:06
  TRACK 227 AUDIO
    TITLE "3:cjc087_5373"
    INDEX 01 07:18:46
  TRACK 228 AUDIO
    TITLE "0:"
    INDEX 01 07:21:01
  TRACK 229 AUDIO
    TITLE "4:cjc087_5374"
    INDEX 01 07:21:74
  TRACK 230 AUDIO
    TITLE "3:cjc087_5375"
    INDEX 01 07:24:17
  TRACK 231 AUDIO
    TITLE "0:"
    INDEX 01 07:26:50
  TRACK 232 AUDIO
    TITLE "4:cjc087_5376"
    INDEX 01 07:27:49
  TRACK 233 AUDIO
    TITLE "3:cjc087_5377"
    INDEX 01 07:29:32
  TRACK 234 AUDIO
    TITLE "0:"
    INDEX 01 07:31:45
  TRACK 235 AUDIO
    TITLE "4:cjc087_5378"
    INDEX 01 07:32:42
  TRACK 236 AUDIO
    TITLE "3:cjc087_5379"
    INDEX 01 07:35:09
  TRACK 237 AUDIO
    TITLE "0:"
    INDEX 01 07:37:44
  TRACK 238 AUDIO
    TITLE "4:cjc087_5380"
    INDEX 01 07:38:41
  TRACK 239 AUDIO
    TITLE "3:cjc087_5381"
    INDEX 01 07:40:56
  TRACK 240 AUDIO
    TITLE "0:"
    INDEX 01 07:43:50
  TRACK 241 AUDIO
    TITLE "5:cjc087_5382"
    INDEX 01 07:45:06
  TRACK 242 AUDIO
    TITLE "0:"
    INDEX 01 07:47:30
  TRACK 243 AUDIO
    TITLE "4:cjc087_5383"
    INDEX 01 07:48:26
  TRACK 244 AUDIO
    TITLE "3:cjc087_5384"
    INDEX 01 07:50:09
  TRACK 245 AUDIO
    TITLE "0:"
    INDEX 01 07:52:12
  TRACK 246 AUDIO
    TITLE "4:cjc087_5385"
    INDEX 01 07:53:11
  TRACK 247 AUDIO
    TITLE "3:cjc087_5386"
    INDEX 01 07:55:04
  TRACK 248 AUDIO
    TITLE "0:"
    INDEX 01 07:57:31
  TRACK 249 AUDIO
    TITLE "4:cjc087_5387"
    INDEX 01 07:58:26
  TRACK 250 AUDIO
    TITLE "3:cjc087_5388"
    INDEX 01 08:00:19
  TRACK 251 AUDIO
    TITLE "0:"
    INDEX 01 08:02:22
  TRACK 252 AUDIO
    TITLE "4:cjc087_5389"
    INDEX 01 08:03:21
  TRACK 253 AUDIO
    TITLE "3:cjc087_5390"
    INDEX 01 08:05:09
  TRACK 254 AUDIO
    TITLE "0:"
    INDEX 01 08:07:51
  TRACK 255 AUDIO
    TITLE "4:cjc087_5391"
    INDEX 01 08:08:46
  TRACK 256 AUDIO
    TITLE "3:cjc087_5392"
    INDEX 01 08:10:23
  TRACK 257 AUDIO
    TITLE "0:"
    INDEX 01 08:12:48
  TRACK 258 AUDIO
    TITLE "4:cjc087_5393"
    INDEX 01 08:13:47
  TRACK 259 AUDIO
    TITLE "3:cjc087_5394"
    INDEX 01 08:15:56
  TRACK 260 AUDIO
    TITLE "0:"
    INDEX 01 08:18:37
  TRACK 261 AUDIO
    TITLE "4:cjc087_5395"
    INDEX 01 08:19:36
  TRACK 262 AUDIO
    TITLE "3:cjc087_5396"
    INDEX 01 08:21:49
  TRACK 263 AUDIO
    TITLE "0:"
    INDEX 01 08:24:00
  TRACK 264 AUDIO
    TITLE "4:cjc087_5397"
    INDEX 01 08:24:74
  TRACK 265 AUDIO
    TITLE "3:cjc087_5398"
    INDEX 01 08:26:60
  TRACK 266 AUDIO
    TITLE "0:"
    INDEX 01 08:29:13
  TRACK 267 AUDIO
    TITLE "5:cjc087_5399"
    INDEX 01 08:30:48
  TRACK 268 AUDIO
    TITLE "0:"
    INDEX 01 08:32:72
  TRACK 269 AUDIO
    TITLE "4:cjc087_5400"
    INDEX 01 08:33:69
  TRACK 270 AUDIO
    TITLE "3:cjc087_5401"
    INDEX 01 08:36:07
  TRACK 271 AUDIO
    TITLE "0:"
    INDEX 01 08:39:33
  TRACK 272 AUDIO
    TITLE "4:cjc087_5402"
    INDEX 01 08:40:30
  TRACK 273 AUDIO
    TITLE "3:cjc087_5403"
    INDEX 01 08:42:68
  TRACK 274 AUDIO
    TITLE "0:"
    INDEX 01 08:45:53
  TRACK 275 AUDIO
    TITLE "4:cjc087_5404"
    INDEX 01 08:46:51
  TRACK 276 AUDIO
    TITLE "3:cjc087_5405"
    INDEX 01 08:47:62
  TRACK 277 AUDIO
    TITLE "0:"
    INDEX 01 08:51:40
  TRACK 278 AUDIO
    TITLE "4:cjc087_5406"
    INDEX 01 08:52:37
  TRACK 279 AUDIO
    TITLE "3:cjc087_5407"
    INDEX 01 08:54:32
  TRACK 280 AUDIO
    TITLE "0:"
    INDEX 01 08:56:14
  TRACK 281 AUDIO
    TITLE "4:cjc087_5408"
    INDEX 01 08:57:09
  TRACK 282 AUDIO
    TITLE "3:cjc087_5409"
    INDEX 01 08:59:47
  TRACK 283 AUDIO
    TITLE "0:"
    INDEX 01 09:02:24
  TRACK 284 AUDIO
    TITLE "4:cjc087_5410"
    INDEX 01 09:03:22
  TRACK 285 AUDIO
    TITLE "3:cjc087_5411"
    INDEX 01 09:05:62
  TRACK 286 AUDIO
    TITLE "0:"
    INDEX 01 09:08:38
  TRACK 287 AUDIO
    TITLE "4:cjc087_5412"
    INDEX 01 09:09:32
  TRACK 288 AUDIO
    TITLE "3:cjc087_5413"
    INDEX 01 09:11:70
  TRACK 289 AUDIO
    TITLE "0:"
    INDEX 01 09:15:03
  TRACK 290 AUDIO
    TITLE "5:cjc087_5414"
    INDEX 01 09:16:38
  TRACK 291 AUDIO
    TITLE "0:"
    INDEX 01 09:18:58
  TRACK 292 AUDIO
    TITLE "4:cjc087_5415"
    INDEX 01 09:19:56
  TRACK 293 AUDIO
    TITLE "3:cjc087_5416"
    INDEX 01 09:23:28
  TRACK 294 AUDIO
    TITLE "0:"
    INDEX 01 09:26:42
  TRACK 295 AUDIO
    TITLE "4:cjc087_5417"
    INDEX 01 09:27:46
  TRACK 296 AUDIO
    TITLE "3:cjc087_5418"
    INDEX 01 09:30:48
  TRACK 297 AUDIO
    TITLE "0:"
    INDEX 01 09:33:36
  TRACK 298 AUDIO
    TITLE "4:cjc087_5419"
    INDEX 01 09:34:44
  TRACK 299 AUDIO
    TITLE "3:cjc087_5420"
    INDEX 01 09:37:11
  TRACK 300 AUDIO
    TITLE "0:"
    INDEX 01 09:39:70
  TRACK 301 AUDIO
    TITLE "4:cjc087_5421"
    INDEX 01 09:40:68
  TRACK 302 AUDIO
    TITLE "3:cjc087_5422"
    INDEX 01 09:44:46
  TRACK 303 AUDIO
    TITLE "0:"
    INDEX 01 09:48:42
  TRACK 304 AUDIO
    TITLE "4:cjc087_5423"
    INDEX 01 09:49:39
  TRACK 305 AUDIO
    TITLE "3:cjc087_5424"
    INDEX 01 09:51:72
  TRACK 306 AUDIO
    TITLE "0:"
    INDEX 01 09:54:52
  TRACK 307 AUDIO
    TITLE "2:cjc087_5425"
    INDEX 01 09:56:10
  TRACK 308 AUDIO
    TITLE "0:"
    INDEX 01 10:09:38
  TRACK 309 AUDIO
    TITLE "5:cjc087_5426"
    INDEX 01 10:11:04
  TRACK 310 AUDIO
    TITLE "0:"
    INDEX 01 10:13:32
  TRACK 311 AUDIO
    TITLE "4:cjc087_5427"
    INDEX 01 10:14:28
  TRACK 312 AUDIO
    TITLE "3:cjc087_5428"
    INDEX 01 10:16:46
  TRACK 313 AUDIO
    TITLE "0:"
    INDEX 01 10:19:13
  TRACK 314 AUDIO
    TITLE "4:cjc087_5429"
    INDEX 01 10:20:09
  TRACK 315 AUDIO
    TITLE "3:cjc087_5430"
    INDEX 01 10:22:25
  TRACK 316 AUDIO
    TITLE "0:"
    INDEX 01 10:24:26
  TRACK 317 AUDIO
    TITLE "4:cjc087_5431"
    INDEX 01 10:25:23
  TRACK 318 AUDIO
    TITLE "3:cjc087_5432"
    INDEX 01 10:27:34
  TRACK 319 AUDIO
    TITLE "0:"
    INDEX 01 10:29:45
  TRACK 320 AUDIO
    TITLE "4:cjc087_5433"
    INDEX 01 10:30:42
  TRACK 321 AUDIO
    TITLE "3:cjc087_5434"
    INDEX 01 10:33:01
  TRACK 322 AUDIO
    TITLE "0:"
    INDEX 01 10:35:22
  TRACK 323 AUDIO
    TITLE "4:cjc087_5435"
    INDEX 01 10:36:21
  TRACK 324 AUDIO
    TITLE "3:cjc087_5436"
    INDEX 01 10:38:34
  TRACK 325 AUDIO
    TITLE "0:"
    INDEX 01 10:40:47
  TRACK 326 AUDIO
    TITLE "4:cjc087_5437"
    INDEX 01 10:41:44
  TRACK 327 AUDIO
    TITLE "3:cjc087_5438"
    INDEX 01 10:43:25
  TRACK 328 AUDIO
    TITLE "0:"
    INDEX 01 10:45:50
  TRACK 329 AUDIO
    TITLE "4:cjc087_5439"
    INDEX 01 10:46:49
  TRACK 330 AUDIO
    TITLE "3:cjc087_5440"
    INDEX 01 10:48:17
  TRACK 331 AUDIO
    TITLE "0:"
    INDEX 01 10:50:37
  TRACK 332 AUDIO
    TITLE "4:cjc087_5441"
    INDEX 01 10:51:39
  TRACK 333 AUDIO
    TITLE "3:cjc087_5442"
    INDEX 01 10:54:31
  TRACK 334 AUDIO
    TITLE "0:"
    INDEX 01 10:56:61
  TRACK 335 AUDIO
    TITLE "5:cjc087_5443"
    INDEX 01 10:58:21
  TRACK 336 AUDIO
    TITLE "0:"
    INDEX 01 11:00:47
  TRACK 337 AUDIO
    TITLE "4:cjc087_5444"
    INDEX 01 11:01:45
  TRACK 338 AUDIO
    TITLE "3:cjc087_5445"
    INDEX 01 11:03:48
  TRACK 339 AUDIO
    TITLE "0:"
    INDEX 01 11:05:68
  TRACK 340 AUDIO
    TITLE "4:cjc087_5446"
    INDEX 01 11:06:66
  TRACK 341 AUDIO
    TITLE "3:cjc087_5447"
    INDEX 01 11:09:21
  TRACK 342 AUDIO
    TITLE "0:"
    INDEX 01 11:11:61
  TRACK 343 AUDIO
    TITLE "4:cjc087_5448"
    INDEX 01 11:12:60
  TRACK 344 AUDIO
    TITLE "3:cjc087_5449"
    INDEX 01 11:15:33
  TRACK 345 AUDIO
    TITLE "0:"
    INDEX 01 11:18:20
  TRACK 346 AUDIO
    TITLE "4:cjc087_5450"
    INDEX 01 11:19:19
  TRACK 347 AUDIO
    TITLE "3:cjc087_5451"
    INDEX 01 11:21:65
  TRACK 348 AUDIO
    TITLE "0:"
    INDEX 01 11:24:42
  TRACK 349 AUDIO
    TITLE "4:cjc087_5452"
    INDEX 01 11:25:39
  TRACK 350 AUDIO
    TITLE "3:cjc087_5453"
    INDEX 01 11:26:74
  TRACK 351 AUDIO
    TITLE "0:"
    INDEX 01 11:29:23
  TRACK 352 AUDIO
    TITLE "4:cjc087_5454"
    INDEX 01 11:30:23
  TRACK 353 AUDIO
    TITLE "3:cjc087_5455"
    INDEX 01 11:31:60
  TRACK 354 AUDIO
    TITLE "0:"
    INDEX 01 11:33:62
  TRACK 355 AUDIO
    TITLE "4:cjc087_5456"
    INDEX 01 11:34:60
  TRACK 356 AUDIO
    TITLE "3:cjc087_5457"
    INDEX 01 11:36:27
  TRACK 357 AUDIO
    TITLE "0:"
    INDEX 01 11:38:50
  TRACK 358 AUDIO
    TITLE "5:cjc087_5458"
    INDEX 01 11:40:10
  TRACK 359 AUDIO
    TITLE "0:"
    INDEX 01 11:42:38
  TRACK 360 AUDIO
    TITLE "3:cjc087_5459"
    INDEX 01 11:43:35
  TRACK 361 AUDIO
    TITLE "4:cjc087_5460"
    INDEX 01 11:46:08
  TRACK 362 AUDIO
    TITLE "0:"
    INDEX 01 11:48:27
  TRACK 363 AUDIO
    TITLE "3:cjc087_5461"
    INDEX 01 11:49:26
  TRACK 364 AUDIO
    TITLE "4:cjc087_5462"
    INDEX 01 11:53:00
  TRACK 365 AUDIO
    TITLE "0:"
    INDEX 01 11:55:70
  TRACK 366 AUDIO
    TITLE "3:cjc087_5463"
    INDEX 01 11:56:63
  TRACK 367 AUDIO
    TITLE "4:cjc087_5464"
    INDEX 01 11:59:09
  TRACK 368 AUDIO
    TITLE "0:"
    INDEX 01 12:01:29
  TRACK 369 AUDIO
    TITLE "3:cjc087_5465"
    INDEX 01 12:02:29
  TRACK 370 AUDIO
    TITLE "4:cjc087_5466"
    INDEX 01 12:05:15
  TRACK 371 AUDIO
    TITLE "0:"
    INDEX 01 12:07:20
  TRACK 372 AUDIO
    TITLE "3:cjc087_5467"
    INDEX 01 12:08:18
  TRACK 373 AUDIO
    TITLE "4:cjc087_5468"
    INDEX 01 12:11:18
  TRACK 374 AUDIO
    TITLE "0:"
    INDEX 01 12:15:35
  TRACK 375 AUDIO
    TITLE "3:cjc087_5469"
    INDEX 01 12:16:33
  TRACK 376 AUDIO
    TITLE "4:cjc087_5470"
    INDEX 01 12:19:14
  TRACK 377 AUDIO
    TITLE "0:"
    INDEX 01 12:21:18
  TRACK 378 AUDIO
    TITLE "3:cjc087_5471"
    INDEX 01 12:22:16
  TRACK 379 AUDIO
    TITLE "4:cjc087_5472"
    INDEX 01 12:23:72
  TRACK 380 AUDIO
    TITLE "0:"
    INDEX 01 12:25:69
  TRACK 381 AUDIO
    TITLE "5:cjc087_5473"
    INDEX 01 12:27:29
  TRACK 382 AUDIO
    TITLE "0:"
    INDEX 01 12:29:57
  TRACK 383 AUDIO
    TITLE "4:cjc087_5474"
    INDEX 01 12:30:53
  TRACK 384 AUDIO
    TITLE "3:cjc087_5475"
    INDEX 01 12:32:48
  TRACK 385 AUDIO
    TITLE "0:"
    INDEX 01 12:34:68
  TRACK 386 AUDIO
    TITLE "4:cjc087_5476"
    INDEX 01 12:35:65
  TRACK 387 AUDIO
    TITLE "3:cjc087_5477"
    INDEX 01 12:37:33
  TRACK 388 AUDIO
    TITLE "0:"
    INDEX 01 12:39:61
  TRACK 389 AUDIO
    TITLE "4:cjc087_5478"
    INDEX 01 12:40:61
  TRACK 390 AUDIO
    TITLE "3:cjc087_5479"
    INDEX 01 12:42:54
  TRACK 391 AUDIO
    TITLE "0:"
    INDEX 01 12:45:01
  TRACK 392 AUDIO
    TITLE "4:cjc087_5480"
    INDEX 01 12:45:74
  TRACK 393 AUDIO
    TITLE "3:cjc087_5481"
    INDEX 01 12:48:29
  TRACK 394 AUDIO
    TITLE "0:"
    INDEX 01 12:50:71
  TRACK 395 AUDIO
    TITLE "4:cjc087_5482"
    INDEX 01 12:51:70
  TRACK 396 AUDIO
    TITLE "3:cjc087_5483"
    INDEX 01 12:53:57
  TRACK 397 AUDIO
    TITLE "0:"
    INDEX 01 12:56:09
  TRACK 398 AUDIO
    TITLE "4:cjc087_5484"
    INDEX 01 12:57:08
  TRACK 399 AUDIO
    TITLE "3:cjc087_5485"
    INDEX 01 12:58:43
  TRACK 400 AUDIO
    TITLE "0:"
    INDEX 01 13:00:73
  TRACK 401 AUDIO
    TITLE "4:cjc087_5486"
    INDEX 01 13:01:73
  TRACK 402 AUDIO
    TITLE "3:cjc087_5487"
    INDEX 01 13:03:38
  TRACK 403 AUDIO
    TITLE "0:"
    INDEX 01 13:06:01
  TRACK 404 AUDIO
    TITLE "4:cjc087_5488"
    INDEX 01 13:07:01
  TRACK 405 AUDIO
    TITLE "3:cjc087_5489"
    INDEX 01 13:09:35
  TRACK 406 AUDIO
    TITLE "0:"
    INDEX 01 13:11:53
  TRACK 407 AUDIO
    TITLE "5:cjc087_5490"
    INDEX 01 13:13:15
  TRACK 408 AUDIO
    TITLE "0:"
    INDEX 01 13:15:20
  TRACK 409 AUDIO
    TITLE "4:cjc087_5491"
    INDEX 01 13:16:17
  TRACK 410 AUDIO
    TITLE "3:cjc087_5492"
    INDEX 01 13:18:57
  TRACK 411 AUDIO
    TITLE "0:"
    INDEX 01 13:21:40
  TRACK 412 AUDIO
    TITLE "4:cjc087_5493"
    INDEX 01 13:22:38
  TRACK 413 AUDIO
    TITLE "3:cjc087_5494"
    INDEX 01 13:24:13
  TRACK 414 AUDIO
    TITLE "0:"
    INDEX 01 13:26:20
  TRACK 415 AUDIO
    TITLE "4:cjc087_5495"
    INDEX 01 13:27:17
  TRACK 416 AUDIO
    TITLE "3:cjc087_5496"
    INDEX 01 13:29:28
  TRACK 417 AUDIO
    TITLE "0:"
    INDEX 01 13:31:40
  TRACK 418 AUDIO
    TITLE "4:cjc087_5497"
    INDEX 01 13:32:38
  TRACK 419 AUDIO
    TITLE "3:cjc087_5498"
    INDEX 01 13:34:62
  TRACK 420 AUDIO
    TITLE "0:"
    INDEX 01 13:37:18
  TRACK 421 AUDIO
    TITLE "4:cjc087_5499"
    INDEX 01 13:38:15
  TRACK 422 AUDIO
    TITLE "3:cjc087_5500"
    INDEX 01 13:40:22
  TRACK 423 AUDIO
    TITLE "0:"
    INDEX 01 13:43:10
  TRACK 424 AUDIO
    TITLE "4:cjc087_5501"
    INDEX 01 13:44:27
  TRACK 425 AUDIO
    TITLE "3:cjc087_5502"
    INDEX 01 13:46:13
  TRACK 426 AUDIO
    TITLE "0:"
    INDEX 01 13:48:55
  TRACK 427 AUDIO
    TITLE "4:cjc087_5503"
    INDEX 01 13:49:50
  TRACK 428 AUDIO
    TITLE "3:cjc087_5504"
    INDEX 01 13:51:39
  TRACK 429 AUDIO
    TITLE "0:"
    INDEX 01 13:54:22
  TRACK 430 AUDIO
    TITLE "2:cjc087_5505"
    INDEX 01 13:55:61
  TRACK 431 AUDIO
    TITLE "0:"
    INDEX 01 14:07:52
  TRACK 432 AUDIO
    TITLE "5:cjc087_5506"
    INDEX 01 14:09:20
  TRACK 433 AUDIO
    TITLE "0:"
    INDEX 01 14:11:46
  TRACK 434 AUDIO
    TITLE "4:cjc087_5507"
    INDEX 01 14:12:43
  TRACK 435 AUDIO
    TITLE "3:cjc087_5508"
    INDEX 01 14:14:34
  TRACK 436 AUDIO
    TITLE "0:"
    INDEX 01 14:16:59
  TRACK 437 AUDIO
    TITLE "4:cjc087_5509"
    INDEX 01 14:17:56
  TRACK 438 AUDIO
    TITLE "3:cjc087_5510"
    INDEX 01 14:19:45
  TRACK 439 AUDIO
    TITLE "0:"
    INDEX 01 14:21:42
  TRACK 440 AUDIO
    TITLE "4:cjc087_5511"
    INDEX 01 14:22:40
  TRACK 441 AUDIO
    TITLE "3:cjc087_5512"
    INDEX 01 14:24:45
  TRACK 442 AUDIO
    TITLE "0:"
    INDEX 01 14:27:23
  TRACK 443 AUDIO
    TITLE "4:cjc087_5513"
    INDEX 01 14:28:23
  TRACK 444 AUDIO
    TITLE "3:cjc087_5514"
    INDEX 01 14:29:67
  TRACK 445 AUDIO
    TITLE "0:"
    INDEX 01 14:31:49
  TRACK 446 AUDIO
    TITLE "4:cjc087_5515"
    INDEX 01 14:32:44
  TRACK 447 AUDIO
    TITLE "3:cjc087_5516"
    INDEX 01 14:34:37
  TRACK 448 AUDIO
    TITLE "0:"
    INDEX 01 14:37:30
  TRACK 449 AUDIO
    TITLE "4:cjc087_5517"
    INDEX 01 14:38:27
  TRACK 450 AUDIO
    TITLE "3:cjc087_5518"
    INDEX 01 14:39:68
  TRACK 451 AUDIO
    TITLE "0:"
    INDEX 01 14:42:19
  TRACK 452 AUDIO
    TITLE "4:cjc087_5519"
    INDEX 01 14:43:26
  TRACK 453 AUDIO
    TITLE "3:cjc087_5520"
    INDEX 01 14:45:55
  TRACK 454 AUDIO
    TITLE "0:"
    INDEX 01 14:48:49
  TRACK 455 AUDIO
    TITLE "5:cjc087_5521"
    INDEX 01 14:50:18
  TRACK 456 AUDIO
    TITLE "0:"
    INDEX 01 14:52:39
  TRACK 457 AUDIO
    TITLE "4:cjc087_5522"
    INDEX 01 14:53:36
  TRACK 458 AUDIO
    TITLE "3:cjc087_5523"
    INDEX 01 14:55:27
  TRACK 459 AUDIO
    TITLE "0:"
    INDEX 01 14:57:15
  TRACK 460 AUDIO
    TITLE "4:cjc087_5524"
    INDEX 01 14:58:18
  TRACK 461 AUDIO
    TITLE "3:cjc087_5525"
    INDEX 01 14:59:63
  TRACK 462 AUDIO
    TITLE "0:"
    INDEX 01 15:02:06
  TRACK 463 AUDIO
    TITLE "4:cjc087_5526"
    INDEX 01 15:03:03
  TRACK 464 AUDIO
    TITLE "3:cjc087_5527"
    INDEX 01 15:04:58
  TRACK 465 AUDIO
    TITLE "0:"
    INDEX 01 15:07:09
  TRACK 466 AUDIO
    TITLE "4:cjc087_5528"
    INDEX 01 15:08:09
  TRACK 467 AUDIO
    TITLE "3:cjc087_5529"
    INDEX 01 15:09:59
  TRACK 468 AUDIO
    TITLE "0:"
    INDEX 01 15:12:06
  TRACK 469 AUDIO
    TITLE "4:cjc087_5530"
    INDEX 01 15:13:06
  TRACK 470 AUDIO
    TITLE "3:cjc087_5531"
    INDEX 01 15:14:33
  TRACK 471 AUDIO
    TITLE "0:"
    INDEX 01 15:16:08
  TRACK 472 AUDIO
    TITLE "4:cjc087_5532"
    INDEX 01 15:17:08
  TRACK 473 AUDIO
    TITLE "3:cjc087_5533"
    INDEX 01 15:19:28
  TRACK 474 AUDIO
    TITLE "0:"
    INDEX 01 15:21:23
  TRACK 475 AUDIO
    TITLE "4:cjc087_5534"
    INDEX 01 15:22:20
  TRACK 476 AUDIO
    TITLE "3:cjc087_5535"
    INDEX 01 15:23:65
  TRACK 477 AUDIO
    TITLE "0:"
    INDEX 01 15:25:44
  TRACK 478 AUDIO
    TITLE "4:cjc087_5536"
    INDEX 01 15:26:65
  TRACK 479 AUDIO
    TITLE "3:cjc087_5537"
    INDEX 01 15:28:64
  TRACK 480 AUDIO
    TITLE "0:"
    INDEX 01 15:30:51
  TRACK 481 AUDIO
    TITLE "5:cjc087_5538"
    INDEX 01 15:32:13
  TRACK 482 AUDIO
    TITLE "0:"
    INDEX 01 15:34:37
  TRACK 483 AUDIO
    TITLE "4:cjc087_5539"
    INDEX 01 15:35:37
  TRACK 484 AUDIO
    TITLE "3:cjc087_5540"
    INDEX 01 15:37:34
  TRACK 485 AUDIO
    TITLE "0:"
    INDEX 01 15:39:37
  TRACK 486 AUDIO
    TITLE "4:cjc087_5541"
    INDEX 01 15:40:32
  TRACK 487 AUDIO
    TITLE "3:cjc087_5542"
    INDEX 01 15:41:71
  TRACK 488 AUDIO
    TITLE "0:"
    INDEX 01 15:44:10
  TRACK 489 AUDIO
    TITLE "4:cjc087_5543"
    INDEX 01 15:45:08
  TRACK 490 AUDIO
    TITLE "3:cjc087_5544"
    INDEX 01 15:47:20
  TRACK 491 AUDIO
    TITLE "0:"
    INDEX 01 15:49:51
  TRACK 492 AUDIO
    TITLE "4:cjc087_5545"
    INDEX 01 15:50:48
  TRACK 493 AUDIO
    TITLE "3:cjc087_5546"
    INDEX 01 15:52:41
  TRACK 494 AUDIO
    TITLE "0:"
    INDEX 01 15:54:69
  TRACK 495 AUDIO
    TITLE "4:cjc087_5547"
    INDEX 01 15:55:69
  TRACK 496 AUDIO
    TITLE "3:cjc087_5548"
    INDEX 01 15:58:01
  TRACK 497 AUDIO
    TITLE "0:"
    INDEX 01 16:00:13
  TRACK 498 AUDIO
    TITLE "4:cjc087_5549"
    INDEX 01 16:01:19
  TRACK 499 AUDIO
    TITLE "3:cjc087_5550"
    INDEX 01 16:02:36
  TRACK 500 AUDIO
    TITLE "0:"
    INDEX 01 16:04:19
  TRACK 501 AUDIO
    TITLE "4:cjc087_5551"
    INDEX 01 16:05:14
  TRACK 502 AUDIO
    TITLE "3:cjc087_5552"
    INDEX 01 16:07:64
  TRACK 503 AUDIO
    TITLE "0:"
    INDEX 01 16:10:29
  TRACK 504 AUDIO
    TITLE "4:cjc087_5553"
    INDEX 01 16:11:29
  TRACK 505 AUDIO
    TITLE "3:cjc087_5554"
    INDEX 01 16:13:26
  TRACK 506 AUDIO
    TITLE "0:"
    INDEX 01 16:15:25
  TRACK 507 AUDIO
    TITLE "5:cjc087_5555"
    INDEX 01 16:16:61
  TRACK 508 AUDIO
    TITLE "0:"
    INDEX 01 16:19:13
  TRACK 509 AUDIO
    TITLE "4:cjc087_5556"
    INDEX 01 16:20:08
  TRACK 510 AUDIO
    TITLE "3:cjc087_5557"
    INDEX 01 16:21:41
  TRACK 511 AUDIO
    TITLE "0:"
    INDEX 01 16:23:24
  TRACK 512 AUDIO
    TITLE "4:cjc087_5558"
    INDEX 01 16:24:24
  TRACK 513 AUDIO
    TITLE "3:cjc087_5559"
    INDEX 01 16:26:28
  TRACK 514 AUDIO
    TITLE "0:"
    INDEX 01 16:28:35
  TRACK 515 AUDIO
    TITLE "4:cjc087_5560"
    INDEX 01 16:29:34
  TRACK 516 AUDIO
    TITLE "3:cjc087_5561"
    INDEX 01 16:31:37
  TRACK 517 AUDIO
    TITLE "0:"
    INDEX 01 16:34:04
  TRACK 518 AUDIO
    TITLE "4:cjc087_5562"
    INDEX 01 16:35:00
  TRACK 519 AUDIO
    TITLE "3:cjc087_5563"
    INDEX 01 16:37:05
  TRACK 520 AUDIO
    TITLE "0:"
    INDEX 01 16:39:49
  TRACK 521 AUDIO
    TITLE "4:cjc087_5564"
    INDEX 01 16:40:44
  TRACK 522 AUDIO
    TITLE "3:cjc087_5565"
    INDEX 01 16:42:18
  TRACK 523 AUDIO
    TITLE "0:"
    INDEX 01 16:44:30
  TRACK 524 AUDIO
    TITLE "4:cjc087_5566"
    INDEX 01 16:45:30
  TRACK 525 AUDIO
    TITLE "3:cjc087_5567"
    INDEX 01 16:47:56
  TRACK 526 AUDIO
    TITLE "0:"
    INDEX 01 16:50:23
  TRACK 527 AUDIO
    TITLE "4:cjc087_5568"
    INDEX 01 16:51:22
  TRACK 528 AUDIO
    TITLE "3:cjc087_5569"
    INDEX 01 16:53:17
  TRACK 529 AUDIO
    TITLE "0:"
    INDEX 01 16:55:67
